<?xml version="1.0" standalone="no"?>
<!DOCTYPE svg PUBLIC "-//W3C//DTD SVG 1.1//EN" "http://www.w3.org/Graphics/SVG/1.1/DTD/svg11.dtd" >
<svg xmlns="http://www.w3.org/2000/svg">
  <metadata>Created by iconfont</metadata>
  <defs>
  <font id="iconfont" horiz-adv-x="1024">
    <font-face
      font-family="iconfont"
      font-weight="400"
      font-stretch="normal"
      units-per-em="1024"
      ascent="896"
      descent="-128"
    />
      <missing-glyph />
      
      <glyph glyph-name="dianliuxinxi1" unicode="&#58979;" d="M180.447295 409.263681a316.440399 316.440399 0 1 1 632.916106 0 316.440399 316.440399 0 0 1-632.916106 0zM496.923003 391.291335c54.62322 0 104.868108-18.749147 144.696803-50.209579 32.590324-25.775663 80.822592-6.179097 86.683908 34.920727a233.85235 233.85235 0 0 1-231.380711 266.901693 233.711113 233.711113 0 0 1-231.204166-267.890349c5.967243-40.676115 54.270129-59.46057 86.507362-34.037999a232.086894 232.086894 0 0 0 144.696804 50.315507zM693.488914 458.343367a13.417468 13.417468 0 0 1-19.066929 0l-20.797076-20.761766a214.538257 214.538257 0 0 1-143.143201 67.440433v15.677252a13.523396 13.523396 0 0 1-13.488087 13.452778 13.523396 13.523396 0 0 1-13.452778-13.452778v-15.677252a213.726147 213.726147 0 0 1-143.178511-67.440433l-20.761767 20.761766a13.417468 13.417468 0 0 1-19.066928 0 13.417468 13.417468 0 0 1 0-19.066928l43.077135-43.077136a13.488087 13.488087 0 0 1 19.066929 19.066929l-3.24844 3.24844a187.208993 187.208993 0 0 0 124.111582 59.46057v-14.829833c0-7.414917 6.037861-13.452777 13.452778-13.452778s13.488087 6.07317 13.488087 13.452778v14.829833a187.208993 187.208993 0 0 0 124.111582-59.46057l-3.283749-3.283749a13.417468 13.417468 0 0 1 9.533464-22.950933 13.488087 13.488087 0 0 1 9.533465 3.884004l43.077135 43.147754a13.417468 13.417468 0 0 1 0 19.066929zM635.440709 545.133202a13.523396 13.523396 0 0 1-19.066929-0.953346l-125.523947-139.435744c2.01262 0 4.025241 0.105927 6.07317 0.105928 9.71001 0 19.314093-0.564946 28.741629-1.62422l110.658805 122.946381a13.311541 13.311541 0 0 1-0.882728 18.961001z"  horiz-adv-x="1024" />
      
      <glyph glyph-name="dianyaxinxi1" unicode="&#58980;" d="M702.210269 567.130789H295.872832c-33.473053 0-60.943554-27.435192-60.943554-60.978863v-284.41502c0-33.473053 27.435192-60.978863 60.943554-60.978863h406.337437c33.473053 0 60.978863 27.435192 60.978862 60.978863v284.485638c0 33.473053-27.470501 60.908245-60.978862 60.908245zM316.246198 628.109651h81.281611a20.302748 20.302748 0 0 0 0-40.605496H316.246198a20.302748 20.302748 0 0 0 0 40.605496z m284.344402 0h81.246302a20.302748 20.302748 0 0 0 0-40.605496H600.625909a20.302748 20.302748 0 0 0 0 40.605496zM316.246198 384.335437h162.492604v-40.605497H316.246198v40.605497z m304.717769 60.908244h-40.640806v-60.908244H519.414917v-40.605497h60.908244v-60.978862h40.605497v60.908244h60.978862v40.605496h-60.978862v60.978863z"  horiz-adv-x="1024" />
      
      <glyph glyph-name="gou" unicode="&#58981;" d="M1174.186667 838.485333a64 64 0 0 0 4.693333-90.368l-763.221333-847.701333a63.744 63.744 0 0 0-31.573334-19.114667 64 64 0 0 0-65.877333 18.517334L16.725333 234.666667A64 64 0 0 0 111.786667 320.256l254.805333-282.88L1083.818667 833.706667A64 64 0 0 0 1174.186667 838.485333z"  horiz-adv-x="1195" />
      
      <glyph glyph-name="fadianliang1" unicode="&#58982;" d="M344.91721 612.820799h71.818765v-35.909382H344.91721V612.820799z m0 47.914486h71.818765V624.755284H344.91721V660.770594z m287.345677-47.914486h71.854074v-35.909382h-71.854074V612.820799z m0 47.914486h71.854074V624.755284h-71.854074V660.770594z m-143.672838-47.914486h71.854074v-35.909382h-71.854074V612.820799z m0 47.914486h71.854074V624.755284h-71.854074V660.770594zM745.146167 552.971829H285.068239v-340.697769c0-5.543533 1.906693-9.250991 5.64946-12.95845a17.230854 17.230854 0 0 1 13.240923-5.543533h441.187545a17.301472 17.301472 0 0 1 13.205614 5.543533 16.665908 16.665908 0 0 1 5.64946 12.95845v322.195786a16.630599 16.630599 0 0 1-5.64946 12.95845 20.549912 20.549912 0 0 1-13.205614 5.543533z m-252.813351-287.345678l27.611738 90.60322h-79.198373l57.094859 136.858178h60.767008l-42.370953-88.661219h92.121513l-116.025792-138.800179zM319.247474 168.102341h410.503914v-41.064515H319.247474z"  horiz-adv-x="1024" />
      
      <glyph glyph-name="jianpaixiaoyi1" unicode="&#58983;" d="M522.769284 633.511948c52.928382 0 96.994173-12.711286 137.811524-40.46426 12.711286 4.731423 30.613013 10.698666 43.571463 13.876487a286.357022 286.357022 0 0 1-376.077515-11.546085c12.464122-3.001276 28.847557-6.708734 41.099824-11.122375 64.439157 43.7127 94.134133 49.256233 153.594704 49.256233m242.891486-186.53812c5.896624-21.538568 8.191718-39.546223 8.050481-62.920864-0.776801-131.10279-107.23382-247.693528-245.045343-250.941968V409.016517a261.287542 261.287542 0 0 1 172.061377 24.998862 262.099652 262.099652 0 0 1 125.206166 144.41433 261.993724 261.993724 0 0 1-313.96876-162.669149h-2.259784a262.064343 262.064343 0 0 1-314.004069 162.669149 262.064343 262.064343 0 0 1 125.170856-144.379021 261.35816 261.35816 0 0 1 172.061377-24.998862v-274.422537c-116.979139 20.196821-221.847247 115.107755-221.847246 245.680907 0 17.301472 1.942002 35.379746 5.26106 51.692563a442.070273 442.070273 0 0 0-31.319196 26.199372 286.003931 286.003931 0 0 1-10.027792-74.149167c0-158.6086 129.019551-287.628151 287.62815-287.628151 158.6086 0 287.628151 129.019551 287.628151 287.628151 0 32.060688-5.543533 62.814937-15.253543 91.627185-8.474191-8.474191-17.301472-16.59529-26.729009-24.222061M528.665908 133.110996V409.016517a261.287542 261.287542 0 0 1 172.061377 24.998862 262.099652 262.099652 0 0 1 125.206166 144.41433 261.993724 261.993724 0 0 1-313.96876-162.669149h-2.259784a262.064343 262.064343 0 0 1-314.004069 162.669149 262.064343 262.064343 0 0 1 125.170856-144.379021 261.35816 261.35816 0 0 1 172.061377-24.998862v-311.95614l35.732837-0.706182v36.721492z"  horiz-adv-x="1024" />
      
      <glyph glyph-name="wancheng" unicode="&#58984;" d="M512 880c136.96 0 260.96-55.52 350.72-145.28A494.432 494.432 0 0 0 1008 384c0-136.96-55.52-260.96-145.28-350.72A494.432 494.432 0 0 0 512-112c-136.96 0-260.96 55.52-350.72 145.28A494.432 494.432 0 0 0 16 384c0 136.96 55.52 260.96 145.28 350.72A494.432 494.432 0 0 0 512 880zM728.32 554.432a24 24 0 0 0 1.76-33.888l-286.208-317.888a23.904 23.904 0 0 0-11.84-7.168 24 24 0 0 0-24.704 6.944L294.272 328a24 24 0 0 0 35.648 32.096l95.552-106.08 268.96 298.656a24 24 0 0 0 33.888 1.76z"  horiz-adv-x="1024" />
      
      <glyph glyph-name="gongshuai1" unicode="&#58985;" d="M283.691183 591.811869m35.309127 0l361.918555 0q35.309127 0 35.309127-35.309128l0-392.814041q0-35.309127-35.309127-35.309127l-361.918555 0q-35.309127 0-35.309127 35.309127l0 392.814041q0 35.309127 35.309127 35.309128ZM680.918865 591.811869a35.309127 35.309127 0 0 0 35.309127-35.309128v-392.814041c0-11.263612-5.296369-21.291404-13.488086-27.752974L283.691183 554.94914v1.553601a35.309127 35.309127 0 0 0 35.309127 35.309128h361.918555zM648.822868 111.431192v-18.007655a36.01531 36.01531 0 0 0-36.01531-36.050619h-236.924244a36.01531 36.01531 0 0 0-36.015309 36.01531v18.042964h-24.857626A67.864143 67.864143 0 0 0 247.181545 179.295335V545.662839C247.181545 583.090514 277.547395 613.491673 315.010379 613.491673H673.715803A67.864143 67.864143 0 0 0 741.509327 545.662839v-366.367504c0-37.462984-30.365849-67.864143-67.828833-67.864143h-24.857626zM315.010379 567.166098a21.503259 21.503259 0 0 1-21.503259-21.538568v-366.332195c0-11.899176 9.639392-21.538568 21.538568-21.538568h358.599497a21.503259 21.503259 0 0 1 21.538567 21.538568V545.662839a21.503259 21.503259 0 0 1-21.538567 21.503259H315.045688zM621.811386 368.269784h-49.432778l-27.823593 111.223751c-3.107203 6.179097-9.2863 12.358195-15.465397 12.358194a16.98369 16.98369 0 0 1-15.430089-9.2863l-43.253681-135.94014-18.537292 71.077273c-3.107203 6.179097-9.2863 12.358195-15.465397 12.358195a16.98369 16.98369 0 0 1-15.430089-9.286301l-24.716389-52.504672H343.716699c-9.250991 0-15.430089-9.2863-15.430088-15.465398 0-9.250991 6.179097-15.430089 15.430088-15.430089h61.790973c6.179097 0 12.358195 3.071894 12.358195 9.250992l12.358194 24.716389 21.644495-83.400159c3.071894-6.179097 6.179097-12.358195 15.430089-12.358194 6.179097 0 12.358195 3.071894 15.465398 9.250991l43.253681 135.94014 18.537291-71.041964c3.071894-6.179097 9.250991-12.358195 15.430089-12.358195h61.790973c9.2863 0 15.465398 9.250991 15.465397 15.430089 0 9.2863-6.179097 15.465398-15.465397 15.465398z"  horiz-adv-x="1024" />
      
      <glyph glyph-name="neibuhuanjing" unicode="&#58986;" d="M892.173373 387.301403c0-221.917865-179.900003-401.817868-401.817868-401.817868-221.917865 0-401.817868 179.900003-401.817868 401.817868 0 221.917865 179.900003 401.817868 401.817868 401.817869 221.917865 0 401.817868-179.900003 401.817868-401.817869M891.537809 409.616772H819.613117a27.894211 27.894211 0 0 0 0 55.788421h64.898176A399.699321 399.699321 0 0 1 808.314196 632.876384h-230.745147c-45.831247 0-85.801179-35.309127-87.142926-81.140375a83.682632 83.682632 0 0 1 83.682632-86.260198h145.049895a27.92952 27.92952 0 0 0 0-55.82373h-18.819765c-45.831247 0-85.801179-35.309127-87.213544-81.140375a83.717941 83.717941 0 0 1 83.71794-86.295507h168.212683c20.655839 53.316782 29.659667 110.376332 26.481845 167.435882M490.320196 239.179614c-1.412365 45.831247-41.346988 81.140374-87.213545 81.140375H172.290887a27.894211 27.894211 0 1 0 0 55.788421h29.977449c45.831247 0 85.801179 35.344436 87.178235 81.140375a83.717941 83.717941 0 0 1-83.682632 86.295507H120.068687c-20.867694-49.432778-31.601669-102.573015-31.53105-156.242889 0-87.531327 28.070756-168.424537 75.561532-234.417296h242.573704a83.682632 83.682632 0 0 1 83.647323 86.295507M333.759526 757.482294a91.097548 91.097548 0 0 1-57.553878 20.479294H179.917658a91.45064 91.45064 0 0 1-30.224613-177.604911 403.37147 403.37147 0 0 0 184.066481 157.125617M276.205648 595.130927A91.415331 91.415331 0 0 1 333.759526 757.517603a403.265543 403.265543 0 0 1-184.066481-157.125617c9.462846-3.354367 19.631875-5.225751 30.224613-5.22575H276.205648zM843.234923 195.043205a403.512706 403.512706 0 0 0-114.860591-131.385262h96.852936a66.946105 66.946105 0 0 1 18.007655 131.349953M843.234923 195.043205a67.369815 67.369815 0 0 1-18.042964 2.471639h-212.066618a66.946105 66.946105 0 1 1 0-133.856901h115.248991a403.512706 403.512706 0 0 1 114.860591 131.349953M708.000965 387.301403h-279.012723a61.402572 61.402572 0 1 0 0 122.769836h279.012723a61.367263 61.367263 0 1 0 0-122.734526m-295.078376-267.925658h-112.989207a43.959863 43.959863 0 0 0 0 87.919727h112.989207a43.959863 43.959863 0 0 0 0-87.919727"  horiz-adv-x="1024" />
      
      <glyph glyph-name="gongshuai" unicode="&#58976;" d="M800 352h-102.4L640 582.4c-6.4 12.8-19.2 25.6-32 25.6s-25.6-6.4-32-19.2L486.4 307.2 448 454.4c-6.4 12.8-19.2 25.6-32 25.6s-25.6-6.4-32-19.2l-51.2-108.8H224c-19.2 0-32-19.2-32-32 0-19.2 12.8-32 32-32h128c12.8 0 25.6 6.4 25.6 19.2l25.6 51.2 44.8-172.8c6.4-12.8 12.8-25.6 32-25.6 12.8 0 25.6 6.4 32 19.2l89.6 281.6 38.4-147.2c6.4-12.8 19.2-25.6 32-25.6h128c19.2 0 32 19.2 32 32 0 19.2-12.8 32-32 32zM512-128c-281.6 0-512 230.4-512 512s230.4 512 512 512c108.8 0 211.2-32 300.8-96 12.8-12.8 19.2-32 6.4-44.8-12.8-12.8-32-19.2-44.8-6.4C697.6 806.4 608 832 512 832 262.4 832 64 633.6 64 384s198.4-448 448-448 448 198.4 448 448c0 76.8-19.2 153.6-57.6 224-6.4 12.8-6.4 32 12.8 44.8 12.8 6.4 32 6.4 44.8-12.8 38.4-76.8 64-166.4 64-256 0-281.6-230.4-512-512-512z"  horiz-adv-x="1024" />
      
      <glyph glyph-name="neibuwendu" unicode="&#58977;" d="M536.094118 841.547294c265.758118 0 481.882353-216.304941 481.882353-482.002823 0-265.637647-216.124235-481.882353-481.882353-481.882353s-481.882353 216.124235-481.882353 481.882353C54.211765 625.362824 270.456471 841.547294 536.094118 841.547294z m0-64.451765a418.032941 418.032941 0 0 1-417.611294-417.551058A418.032941 418.032941 0 0 1 536.094118-58.006588c230.279529 0 417.671529 187.271529 417.671529 417.551059 0 230.339765-187.452235 417.611294-417.671529 417.611294z m127.216941-224.436705c47.585882 0 86.859294-23.311059 111.676235-49.152l-42.345412-47.585883c-19.154824 19.094588-39.755294 29.936941-68.306823 29.936941-58.910118 0-101.797647-49.633882-101.797647-131.312941 0-83.365647 39.273412-133.481412 99.749647-133.481412 33.008941 0 56.380235 14.456471 76.498823 36.382118l42.88753-46.561882c-31.503059-37.225412-72.342588-56.380235-120.470588-56.380236-99.328 0-177.332706 69.270588-177.332706 196.969412 0 127.216941 80.594824 201.185882 179.440941 201.185883z m-290.635294 12.227764c45.056 0 81.679059-34.032941 81.679059-82.221176s-36.743529-82.281412-81.679059-82.281412c-45.598118 0-82.281412 34.213647-82.281412 82.281412 0 48.188235 36.743529 82.221176 82.281412 82.221176z m0-37.586823c-24.274824 0-40.839529-18.672941-40.83953-44.574118 0-26.383059 16.564706-44.453647 40.83953-44.453647s40.839529 18.070588 40.839529 44.513882c0 25.901176-16.564706 44.513882-40.839529 44.513883z"  horiz-adv-x="1024" />
      
      <glyph glyph-name="jianpaixiaoyi" unicode="&#58978;" d="M571.21472 830.259111c90.992976 0 166.695309-21.843775 236.868437-69.49051 21.843775 8.123154 52.561584 18.430685 74.883191 23.823367a492.031035 492.031035 0 0 1-646.302697-19.864183c21.365943-5.119635 49.558065-11.467982 70.650961-19.113303C418.035247 820.838983 468.958548 830.327373 571.21472 830.327373m417.420891-320.489139c10.102746-36.997894 14.06193-67.98875 13.788883-108.126687-1.296974-225.263931-184.306853-425.680568-421.038766-431.278035V444.511694a449.026103 449.026103 0 0 1 295.573582 43.004932A450.391339 450.391339 0 0 1 1092.188757 735.579998a450.254815 450.254815 0 0 1-539.541246-279.53206h-3.890922A450.323077 450.323077 0 0 1 9.147081 735.64826a450.391339 450.391339 0 0 1 215.161185-248.131634 449.162626 449.162626 0 0 1 295.573582-42.93667v-471.552496c-200.962731 34.676993-381.173876 197.822689-381.173876 422.199216 0 29.693882 3.344828 60.753 9.010557 88.740337a759.753804 759.753804 0 0 0-53.790296 45.052786 491.484941 491.484941 0 0 1-17.270235-127.376514c0-272.569357 221.714318-494.351936 494.351937-494.351936 272.501095 0 494.215413 221.78258 494.215412 494.351936 0 55.08727-9.48839 107.85364-26.144268 157.479967a589.235835 589.235835 0 0 0-45.94019-41.639696"  horiz-adv-x="1092" />
      
      <glyph glyph-name="leijishouyi" unicode="&#58971;" d="M113.7664 384a398.2336 398.2336 0 1 1 796.4672 0c0 219.921067-178.312533 398.2336-398.2336 398.2336S113.7664 603.921067 113.7664 384zM296.823467 476.2624l352.597333 94.446933 63.146667-235.7248-352.597334-94.446933zM328.977067 484.864h398.199466v-287.607467H328.977067zM635.426133 308.0192a33.1776 33.1776 0 1 1 6.519467 66.048 33.1776 33.1776 0 0 1-6.519467-66.048z"  horiz-adv-x="1024" />
      
      <glyph glyph-name="a-xialaIcon" unicode="&#58972;" d="M1411.968 832h-131.2a28.16 28.16 0 0 1-22.528-11.52L760.96 135.168 263.808 820.48A28.16 28.16 0 0 1 241.28 832H110.08a14.08 14.08 0 0 1-11.52-22.272L715.776-40.96c22.4-30.72 68.352-30.72 90.496 0l616.96 850.688A13.952 13.952 0 0 1 1412.096 832z"  horiz-adv-x="1536" />
      
      <glyph glyph-name="xuanzeshijian" unicode="&#58973;" d="M512 896a512 512 0 1 0 0-1024A512 512 0 0 0 512 896z m0-86.893714a425.179429 425.179429 0 0 1 0-850.212572A425.179429 425.179429 0 0 1 512 809.106286z m27.574857-159.963429c4.973714 0 9.142857-4.096 9.142857-9.142857v-282.843429L711.68 239.323429c4.096-2.925714 4.973714-8.557714 2.048-12.8l-32.694857-44.617143a9.216 9.216 0 0 0-12.8-1.901715L479.232 317.805714a9.069714 9.069714 0 0 0-3.803429 7.460572V640c0 5.046857 4.096 9.142857 9.142858 9.142857z"  horiz-adv-x="1024" />
      
      <glyph glyph-name="leijifadian" unicode="&#58974;" d="M113.7664 384a398.2336 398.2336 0 1 1 796.4672 0c0 219.921067-178.312533 398.2336-398.2336 398.2336S113.7664 603.921067 113.7664 384zM660.6848 442.402133L512 660.138667a16.145067 16.145067 0 0 1-21.230933 0l-148.6848-212.3776c-84.957867-122.129067-5.290667-302.660267 143.36-307.985067h31.880533c148.650667 5.3248 228.283733 180.565333 143.36 302.660267zM591.633067 373.384533l-106.154667-132.744533c-5.3248-5.3248-10.6496 0-10.6496 5.3248l10.615467 69.0176c0 5.290667 0 5.290667-5.290667 5.290667h-79.6672c-5.290667 5.3248-5.290667 10.615467 0 10.615466L512 468.992c5.3248 5.290667 10.615467 0 10.615467-5.3248l-21.230934-74.308267c0-5.3248 5.290667-5.3248 10.615467-5.3248h79.633067c5.3248 0 5.3248-5.3248 0-10.615466z"  horiz-adv-x="1024" />
      
      <glyph glyph-name="zonggongshuai" unicode="&#58975;" d="M512 896a512 512 0 1 0 0-1024A512 512 0 0 0 512 896zM240.512 663.424h552.32c21.76 0 39.424-17.728 39.424-39.488v-477.184a78.848 78.848 0 0 0-78.848-78.848H279.936a78.848 78.848 0 0 0-78.848 78.848V623.936c0 21.76 17.6 39.424 39.424 39.488zM339.136 708.928h355.072a59.2 59.2 0 0 0 0-118.4H339.136a59.2 59.2 0 0 0 0 118.4zM551.168 311.168a20.48 20.48 0 0 0-14.528 5.888L467.648 384.32a20.8 20.8 0 1 0 29.056 29.76L565.696 346.88a20.8 20.8 0 0 0-14.592-35.712v0.064zM551.104 311.168a20.8 20.8 0 0 0-14.72 35.52l111.616 111.552a20.8 20.8 0 0 0 29.44-29.44L565.888 317.376a20.8 20.8 0 0 0-14.848-6.144z m-180.544-44.224a20.8 20.8 0 0 0-14.72 35.52l111.552 111.552a20.8 20.8 0 0 0 29.44-29.44L385.28 273.088a20.672 20.672 0 0 0-14.72-6.144z m303.872-111.424H358.848a20.8 20.8 0 1 0 0 41.6h315.648a20.8 20.8 0 1 0 0-41.6h-0.064zM686.592 489.28a19.776 19.776 0 0 0 23.936-23.936l-11.52-45.824a19.776 19.776 0 0 0-33.088-9.216l-34.368 34.432a19.712 19.712 0 0 0 9.152 33.088l45.888 11.456z"  horiz-adv-x="1024" />
      
      <glyph glyph-name="dianliuxinxi" unicode="&#58968;" d="M512 896c59.712 0 119.488-12.8 179.2-29.888 21.312-8.512 34.112-34.112 25.6-55.424-8.512-25.6-34.112-34.176-55.488-25.6A439.488 439.488 0 0 1 512 810.688c-234.688 0-426.688-192-426.688-426.688s192-422.4 426.688-422.4 426.688 192 426.688 426.688a423.872 423.872 0 0 1-59.776 213.312c-8.512 21.312-4.224 46.912 17.088 59.712 21.312 8.576 46.912 4.288 59.712-17.024C998.4 563.2 1024 473.6 1024 384c0-281.6-230.4-512-512-512s-512 230.4-512 512 230.4 512 512 512z m4.288-234.688c17.024 0 29.824-8.512 38.4-25.6L665.6 362.688l59.712-157.888c12.8-21.312 0-46.912-21.312-55.488-4.288-4.224-12.8-4.224-17.088-4.224-17.024 0-29.824 8.512-38.4 25.6l-51.2 128H422.4l-51.2-128c-8.512-21.376-34.112-29.888-55.488-21.376-21.312 8.576-29.824 34.176-21.312 55.488l183.488 430.912c4.224 17.088 21.312 25.6 38.4 25.6zM512 507.712l-46.912-119.424h93.824L512 507.712z"  horiz-adv-x="1024" />
      
      <glyph glyph-name="dianyaxinxi" unicode="&#58969;" d="M512 896c59.712 0 119.488-12.8 179.2-29.888 21.312-8.512 34.112-34.112 25.6-55.424-8.512-21.376-34.112-34.176-55.488-25.6A439.488 439.488 0 0 1 512 810.688c-234.688 0-426.688-192-426.688-426.688s192-426.688 426.688-426.688 426.688 192 426.688 426.688a412.16 412.16 0 0 1-59.776 213.312c-12.8 21.376-4.224 46.976 17.088 59.776 21.312 12.8 46.912 4.224 59.712-17.088C998.4 563.2 1024 473.6 1024 384c0-281.6-230.4-512-512-512s-512 230.4-512 512 230.4 512 512 512z m192-320c21.312-8.512 29.888-34.112 21.312-55.488L550.4 153.6c-8.512-21.312-21.312-29.888-38.4-29.888-17.088 0-29.888 8.576-38.4 25.6L298.688 516.288c-8.576 21.312 0 46.912 21.312 55.424 21.312 8.576 46.912 0 55.488-21.312L512 260.288l136.512 294.4C657.088 576 682.688 584.512 704 576z"  horiz-adv-x="1024" />
      
      <glyph glyph-name="fadianliang" unicode="&#58970;" d="M412.672 886.016a512.128 512.128 0 0 0 572.8-306.944l-67.584-27.84-1.472 3.584a437.44 437.44 0 0 1-94.08 139.52A436.096 436.096 0 0 1 512 822.848 437.44 437.44 0 0 1 201.6 694.4 436.096 436.096 0 0 1 73.216 384a437.376 437.376 0 0 1 128.512-310.4A436.096 436.096 0 0 1 512-54.784V-128a512 512 0 0 0-512 512A512.128 512.128 0 0 0 412.672 886.016z m216.128-926.72a39.68 39.68 0 0 0 40.064-39.296 39.68 39.68 0 0 0-40.064-39.36 39.68 39.68 0 0 0-40 39.36 39.68 39.68 0 0 0 40 39.36z m159.232 71.232c21.76-0.256 39.296-18.112 39.04-39.872 0.256-21.76-17.28-39.68-39.04-39.872a39.488 39.488 0 0 0-39.04 39.872 39.488 39.488 0 0 0 39.04 39.872zM586.24 709.12c8.704 11.904 29.44 5.184 24.96-10.624l-33.92-121.024-23.232-83.2c-2.624-9.472-12.672-29.504-9.6-40.512 15.808-9.6 60.928-1.472 77.248-1.472h75.328c9.536 0 18.112-11.968 11.712-20.736L437.76 58.88c-8.64-11.904-29.44-5.184-24.96 10.56l59.84 213.568c1.92 6.784 10.368 24.448 6.016 30.464-4.864 6.848-33.792 2.304-41.6 2.304H327.168c-9.664 0-18.176 11.904-11.84 20.608C405.632 460.608 496 584.832 586.24 709.12z m320.512-560.96a39.232 39.232 0 0 0 39.04-39.424 39.296 39.296 0 0 0-39.04-39.296 39.232 39.232 0 0 0-39.04 39.296 39.296 39.296 0 0 0 39.04 39.424z m70.784 158.592a39.04 39.04 0 1 0 0.192-77.952 39.04 39.04 0 0 0-0.192 77.952z m7.424 195.584a39.04 39.04 0 1 0 0-78.08 39.04 39.04 0 0 0 0 78.08z"  horiz-adv-x="1024" />
      
      <glyph glyph-name="yanjing_xianshi_o" unicode="&#58962;" d="M512 597.333333c-162.133333 0-285.866667-68.266667-375.466667-213.333333 89.6-145.066667 213.333333-213.333333 375.466667-213.333333 162.133333 0 285.866667 68.266667 375.466667 213.333333-89.6 145.066667-213.333333 213.333333-375.466667 213.333333z m0-469.333333c-183.466667 0-328.533333 85.333333-426.666667 256 98.133333 170.666667 243.2 256 426.666667 256s328.533333-85.333333 426.666667-256c-98.133333-170.666667-243.2-256-426.666667-256z m0 170.666667c46.933333 0 85.333333 38.4 85.333333 85.333333s-38.4 85.333333-85.333333 85.333333-85.333333-38.4-85.333333-85.333333 38.4-85.333333 85.333333-85.333333z m0-42.666667c-72.533333 0-128 55.466667-128 128s55.466667 128 128 128 128-55.466667 128-128-55.466667-128-128-128z"  horiz-adv-x="1024" />
      
      <glyph glyph-name="lianxiwomen" unicode="&#58963;" d="M512 140.8V-64h384v198.4l-140.8-140.8c-25.6-25.6-64-25.6-89.6 0L512 140.8z m384 51.2H512h38.4l160-160 160 160h25.6z m-384 64h384c38.4 0 64-25.6 64-64v-256c0-38.4-25.6-64-64-64H512c-38.4 0-64 25.6-64 64v256c0 38.4 25.6 64 64 64zM364.8 326.4C281.6 377.6 224 467.2 224 576 224 736 352 864 512 864s288-128 288-288-128-288-288-288c-211.2 0-384-172.8-384-384 0-19.2-12.8-32-32-32s-32 12.8-32 32c0 198.4 128 364.8 300.8 422.4zM512 352c121.6 0 224 102.4 224 224S633.6 800 512 800 288 697.6 288 576 390.4 352 512 352z"  horiz-adv-x="1024" />
      
      <glyph glyph-name="xiugaidenglumima" unicode="&#58964;" d="M889.856-128H134.144a62.976 62.976 0 0 0-62.976 62.912v472.32c0 34.816 28.16 63.04 62.976 63.04h125.952v157.44a251.904 251.904 0 0 0 503.808 0v-157.44h125.952c34.752 0 62.976-28.16 62.976-62.976v-472.32a62.976 62.976 0 0 0-62.976-62.976zM700.928 627.712a188.992 188.992 0 0 1-377.856 0v-157.44h377.856v157.44z m188.928-283.392a62.976 62.976 0 0 1-62.976 62.976H197.12a62.976 62.976 0 0 1-62.976-62.976v-346.432c0-34.688 28.16-62.976 62.976-62.976h629.76a62.976 62.976 0 0 1 62.976 62.976V344.32z m-346.368-247.488v-130.432h-62.976v130.432A125.76 125.76 0 0 0 512 344.32a125.696 125.696 0 1 0 31.488-247.488zM512 281.344a62.976 62.976 0 1 1 0-125.952 62.976 62.976 0 0 1 0 125.952z"  horiz-adv-x="1024" />
      
      <glyph glyph-name="guanyurunzhi" unicode="&#58965;" d="M512 810.688A427.136 427.136 0 0 0 938.688 384 427.136 427.136 0 0 0 512-42.688 427.136 427.136 0 0 0 85.312 384 427.136 427.136 0 0 0 512 810.688m0 64a490.688 490.688 0 1 1 0-981.376A490.688 490.688 0 0 1 512 874.688z m-64-256a64 64 0 1 1 128 0 64 64 0 0 1-128 0z m64-533.376a64 64 0 0 0-64 64v256a64 64 0 0 0 128 0v-256a64 64 0 0 0-64-64z"  horiz-adv-x="1024" />
      
      <glyph glyph-name="yanjing_yincang_o1" unicode="&#58966;" d="M332.8 166.4l34.133333 34.133333c42.666667-12.8 93.866667-21.333333 145.066667-21.333333 162.133333 0 285.866667 68.266667 375.466667 213.333333-46.933333 72.533333-102.4 128-166.4 162.133334l29.866666 29.866666c72.533333-42.666667 132.266667-106.666667 183.466667-192-98.133333-170.666667-243.2-256-426.666667-256-59.733333-4.266667-119.466667 8.533333-174.933333 29.866667z m-115.2 64c-51.2 38.4-93.866667 93.866667-132.266667 157.866667 98.133333 170.666667 243.2 256 426.666667 256 38.4 0 76.8-4.266667 110.933333-12.8l-34.133333-34.133334c-25.6 4.266667-46.933333 4.266667-76.8 4.266667-162.133333 0-285.866667-68.266667-375.466667-213.333333 34.133333-51.2 72.533333-93.866667 115.2-128l-34.133333-29.866667z m230.4 46.933333l29.866667 29.866667c8.533333-4.266667 21.333333-4.266667 29.866666-4.266667 46.933333 0 85.333333 38.4 85.333334 85.333334 0 12.8 0 21.333333-4.266667 29.866666l29.866667 29.866667c12.8-17.066667 17.066667-38.4 17.066666-64 0-72.533333-55.466667-128-128-128-17.066667 4.266667-38.4 12.8-59.733333 21.333333zM384 396.8c4.266667 68.266667 55.466667 119.466667 123.733333 123.733333 0-4.266667-123.733333-123.733333-123.733333-123.733333zM733.866667 682.666667l29.866666-29.866667-512-512-34.133333 29.866667L733.866667 682.666667z"  horiz-adv-x="1024" />
      
      <glyph glyph-name="yinsizhengce" unicode="&#58967;" d="M878.592-117.76H145.344a89.344 89.344 0 0 0-89.088 89.408V796.288C56.192 845.568 96 885.632 145.28 885.76h733.248c49.28-0.128 89.152-40.192 89.088-89.472v-824.64c0-49.28-39.808-89.28-89.088-89.472zM145.344 826.048a29.76 29.76 0 0 1-29.696-29.824v-824.64c0-16.448 13.248-29.76 29.696-29.824h733.248c16.448 0.064 29.696 13.44 29.696 29.824V796.288a29.824 29.824 0 0 1-29.696 29.824H145.344z m504.192-560.448H374.4A89.344 89.344 0 0 0 285.44 355.2V524.16c0 45.696 34.304 84.032 79.68 88.96v19.84a131.904 131.904 0 0 0 131.456 132.032h29.888a131.904 131.904 0 0 0 131.456-132.096v-19.648c45.824-4.48 80.768-43.008 80.704-89.088v-168.96c0.064-49.28-39.744-89.344-89.024-89.536z m-123.136 439.68h-29.888a72.32 72.32 0 0 1-72.064-72.448v-19.2h174.08v19.2a72.32 72.32 0 0 1-72.128 72.448z m152.832-181.12a29.76 29.76 0 0 1-29.696 29.76H374.4a29.824 29.824 0 0 1-29.696-29.824v-168.96c0-16.448 13.248-29.824 29.696-29.888h275.136c16.448 0.064 29.696 13.44 29.696 29.824V524.16zM511.936 373.632a29.76 29.76 0 0 0-29.696 29.632l-0.448 75.52a29.76 29.76 0 0 0 29.44 30.08h0.256c16.32-0.064 29.632-13.312 29.696-29.632l0.512-75.584a29.76 29.76 0 0 0-29.44-30.08h-0.32z m275.2-381.184H235.072a29.824 29.824 0 0 0 0 59.648H787.2a29.824 29.824 0 0 0 0-59.648z m-222.592 97.472H235.008a29.824 29.824 0 1 0 0 59.648h329.536a29.824 29.824 0 1 0 0-59.648z"  horiz-adv-x="1024" />
      
      <glyph glyph-name="yonghutuichu" unicode="&#58961;" d="M599.759568 872.115892a260.372757 260.372757 0 0 0 136.385729-482.220973c139.236324-57.897514 237.180541-195.251892 237.180541-355.52173v-11.319351a124.540541 124.540541 0 0 0-124.512865-124.540541H328.067459a124.540541 124.540541 0 0 0-124.54054 124.540541v11.347027c0 165.583568 104.558703 306.729514 251.295135 361.029189A260.372757 260.372757 0 0 0 599.731892 872.088216z m-11.319352-520.745514c-175.076324 0-316.969514-141.920865-316.969513-316.997189v-11.319351c0-31.273514 25.323243-56.596757 56.596756-56.596757H848.812973c31.273514 0 56.596757 25.350919 56.596757 56.596757v11.347027c0 175.048649-141.920865 316.969514-316.969514 316.969513zM932.587243 778.655135c9.797189-4.317405 19.26227-9.299027 28.312216-14.861838 63.598703-39.244108 103.008865-105.776432 103.008865-178.840216 0-66.504649-32.601946-126.809946-84.715243-166.330811 118.119784-58.783135 197.908757-187.973189 197.908757-334.515892a109.318919 109.318919 0 0 0-104.337297-109.318919l-4.843244-0.110702h-17.297297a33.958054 33.958054 0 0 0-3.293405 67.750054l3.293405 0.166054h17.297297c22.777081 0 41.264432 18.570378 41.264433 41.513513 0 145.629405-94.650811 268.896865-222.069622 295.133406a33.958054 33.958054 0 0 0-26.402594 40.074378l0.221405 1.107027c2.629189 12.177297 11.679135 21.919135 23.635027 25.40627 66.227892 19.483676 111.42227 75.692973 111.42227 139.125622 0 48.819892-26.651676 93.820541-70.739027 121.02573a165.611243 165.611243 0 0 1-20.064865 10.516757 33.958054 33.958054 0 1 0 27.398919 62.159567z m-677.113081 0a230.289297 230.289297 0 0 1-28.312216-14.861838C163.563243 724.549189 124.153081 657.989189 124.153081 584.925405c0-66.504649 32.601946-126.809946 84.715243-166.33081C90.776216 359.839135 10.959568 230.676757 10.959568 84.106378a109.318919 109.318919 0 0 1 104.337297-109.318919l4.843243-0.110702h17.297297a33.958054 33.958054 0 0 1 3.293406 67.750054l-3.293406 0.166054h-17.297297c-22.777081 0-41.264432 18.570378-41.264432 41.513513 0 145.629405 94.650811 268.896865 222.069621 295.133406a33.958054 33.958054 0 0 1 26.430271 40.074378l-0.249082 1.107027a33.958054 33.958054 0 0 1-23.635027 25.40627c-66.227892 19.483676-111.42227 75.692973-111.42227 139.125622 0 48.819892 26.651676 93.820541 70.739027 121.02573 6.448432 3.957622 13.145946 7.472432 20.064865 10.516757a33.958054 33.958054 0 1 1-27.398919 62.159567z m344.285406 25.516973a192.456649 192.456649 0 1 1 0-384.885622 192.456649 192.456649 0 0 1 0 384.885622z"  horiz-adv-x="1190" />
      
      <glyph glyph-name="fanhuigongneng" unicode="&#58959;" d="M465.089952 792.515185L174.096437 501.521669l290.993515-290.927769-75.608347-75.5426L23.011236 501.521669l366.470369 366.536116 75.608347-75.5426z"  horiz-adv-x="1115" />
      
      <glyph glyph-name="shouyegongneng" unicode="&#58960;" d="M367.247848 105.004635h282.498345v70.624586h-282.498345V105.004635z m625.281836 272.158905l-49.945707-49.945707-80.964026 80.964025v-423.23902a56.499669 56.499669 0 0 0-56.499669-56.499669H211.873759a56.499669 56.499669 0 0 0-56.499669 56.499669V408.181858l-80.964026-80.964025-49.945707 49.945707L488.496138 841.195321a28.249834 28.249834 0 0 0 40.001765 0l464.031781-464.031781zM225.998676 478.862944v-479.795189h564.996689V478.806444l-282.498344 282.498345-282.498345-282.498345z"  horiz-adv-x="1056" />
      
      <glyph glyph-name="yixiutixing" unicode="&#58957;" d="M542.117647 414.117647m-361.411765 0a361.411765 361.411765 0 1 1 722.82353 0 361.411765 361.411765 0 1 1-722.82353 0ZM534.287059 888.048941a481.882353 481.882353 0 1 1 0-963.764706A481.882353 481.882353 0 0 1 534.287059 888.048941z m233.231059-459.715765L530.251294 191.126588c-12.047059-12.107294-27.888941-18.070588-43.730823-18.010353a61.199059 61.199059 0 0 0-43.791059 18.010353L317.560471 316.235294a61.44 61.44 0 1 0 86.919529 86.859294l82.040471-82.04047 194.078117 194.138353a61.44 61.44 0 0 0 86.91953-86.859295z"  horiz-adv-x="1024" />
      
      <glyph glyph-name="weixiutixing" unicode="&#58958;" d="M512 896a512 512 0 1 0 0-1024A512 512 0 0 0 512 896zM371.072 578.048a162.944 162.944 0 0 0 281.856 0l125.312-216.192a162.944 162.944 0 0 0-140.928-244.608H386.688A162.944 162.944 0 0 0 245.76 361.856l125.312 216.192zM509.312 303.936a39.68 39.68 0 0 0-39.424 35.072l-16.64 144.896a39.744 39.744 0 0 0 34.816 43.904c1.536 0.128 2.944 0.256 4.48 0.256h33.152c21.888 0 39.552-17.664 39.552-39.552 0-1.536-0.128-3.072-0.256-4.608l-16.64-144.896a38.976 38.976 0 0 0-39.04-35.072m0-102.4a42.816 42.816 0 0 0-42.752 42.624 42.688 42.688 0 1 0 42.752-42.624"  horiz-adv-x="1024" />
      
      <glyph glyph-name="yanjing_yincang_o" unicode="&#58941;" d="M332.8 123.733333l34.133333 34.133334c42.666667-12.8 93.866667-21.333333 145.066667-21.333334 162.133333 0 285.866667 68.266667 375.466667 213.333334-46.933333 72.533333-102.4 128-166.4 162.133333l29.866666 29.866667c72.533333-42.666667 132.266667-106.666667 183.466667-192-98.133333-170.666667-243.2-256-426.666667-256-59.733333-4.266667-119.466667 8.533333-174.933333 29.866666z m-115.2 64c-51.2 38.4-93.866667 93.866667-132.266667 157.866667 98.133333 170.666667 243.2 256 426.666667 256 38.4 0 76.8-4.266667 110.933333-12.8l-34.133333-34.133333c-25.6 4.266667-46.933333 4.266667-76.8 4.266666-162.133333 0-285.866667-68.266667-375.466667-213.333333 34.133333-51.2 72.533333-93.866667 115.2-128l-34.133333-29.866667z m230.4 46.933334l29.866667 29.866666c8.533333-4.266667 21.333333-4.266667 29.866666-4.266666 46.933333 0 85.333333 38.4 85.333334 85.333333 0 12.8 0 21.333333-4.266667 29.866667l29.866667 29.866666c12.8-17.066667 17.066667-38.4 17.066666-64 0-72.533333-55.466667-128-128-128-17.066667 4.266667-38.4 12.8-59.733333 21.333334zM384 354.133333c4.266667 68.266667 55.466667 119.466667 123.733333 123.733334 0-4.266667-123.733333-123.733333-123.733333-123.733334zM733.866667 640l29.866666-29.866667-512-512-34.133333 29.866667L733.866667 640z"  horiz-adv-x="1024" />
      
      <glyph glyph-name="yonghumingmima" unicode="&#58956;" d="M514.304 768c116.224 0 210.9952-91.5968 216.1664-206.4896l0.256-9.8816-0.0512-131.3792h38.656c61.3888 0 111.616-47.6672 115.712-108.032l0.256-7.936v-239.5648a115.9168 115.9168 0 0 0-115.968-115.9168H259.2768A115.9168 115.9168 0 0 0 143.36 64.7168v239.616a115.9168 115.9168 0 0 0 115.9168 115.9168h38.6048V551.6288A216.3712 216.3712 0 0 0 514.3552 768z m255.0272-394.1376H259.2768c-38.4 0-69.5296-31.1296-69.5296-69.5808v-239.5648c0-38.4 31.1296-69.5296 69.5296-69.5296h510.0544c38.4 0 69.5808 31.1296 69.5808 69.5296v239.616c0 38.4-31.1296 69.5296-69.5808 69.5296z m-254.976 347.7504A169.984 169.984 0 0 1 344.4736 560.64l-0.2048-9.0112-0.0512-131.3792h340.0704V551.6288a169.984 169.984 0 0 1-169.984 169.984z"  horiz-adv-x="1024" />
      
      <glyph glyph-name="wode-moren" unicode="&#58938;" d="M737.152 356.010667A159.317333 159.317333 0 0 0 896 197.162667v-88.277334a159.317333 159.317333 0 0 0-158.848-158.848H286.848A159.317333 159.317333 0 0 0 128 108.885333v88.32a159.317333 159.317333 0 0 0 158.848 158.805334h450.304z m0-64H286.848a95.36 95.36 0 0 1-94.592-88.106667l-0.256-6.741333v-88.277334c0-49.749333 39.168-91.093333 88.106667-94.592l6.741333-0.256h450.304a95.36 95.36 0 0 1 94.592 88.106667l0.256 6.741333v88.32a95.317333 95.317333 0 0 1-94.848 94.805334zM512 810.666667a210.944 210.944 0 0 0 9.130667-421.717334l-9.130667-0.170666a210.944 210.944 0 0 0-9.130667 421.674666L512 810.666667z m0-64a146.944 146.944 0 1 1 0-293.888A146.944 146.944 0 0 1 512 746.666667z"  horiz-adv-x="1024" />
      
      <glyph glyph-name="yonghumingdenglu" unicode="&#58948;" d="M691.2 307.2a196.4032 196.4032 0 0 0 195.2256-176.128l0.768-10.0864 0.256-10.0352V25.6a25.6 25.6 0 0 0-20.992-25.1904l-4.608-0.4096H179.2a25.6 25.6 0 0 0-25.1904 20.992L153.6 25.6v85.3504a196.4032 196.4032 0 0 0 176.128 195.1744l10.0864 0.8192 10.0352 0.256H691.2z m-340.6336-51.2l-8.704-0.2048a145.1008 145.1008 0 0 1-136.8064-136.0384L204.8 110.9504 204.7488 51.2h631.5008v59.0336l-0.2048 8.704a145.1008 145.1008 0 0 1-135.9872 136.8064L691.2 256H350.5664z m169.984 563.2a196.2496 196.2496 0 1 0 0-392.5504 196.2496 196.2496 0 0 0 0 392.5504z m0-51.2a145.0496 145.0496 0 1 1 0-290.1504 145.0496 145.0496 0 0 1 0 290.1504z"  horiz-adv-x="1024" />
      
      <glyph glyph-name="xuanzhong" unicode="&#58954;" d="M960 384c0 247.424-200.576 448-448 448S64 631.424 64 384 264.576-64 512-64 960 136.576 960 384z m-626.773333 32l114.773333-114.773333 242.730667 242.773333 45.269333-45.269333-288-288-160 160.042666 45.226667 45.226667z"  horiz-adv-x="1024" />
      
      <glyph glyph-name="moren" unicode="&#58955;" d="M960 384c0-247.424-200.576-448-448-448S64 136.576 64 384 264.576 832 512 832 960 631.424 960 384zM128 384a384 384 0 1 1 768 0 384 384 0 0 1-768 0z"  horiz-adv-x="1024" />
      
      <glyph glyph-name="shouye-xuanzhong" unicode="&#58928;" d="M86.229333 430.506667l367.36 365.013333s66.986667 34.090667 113.706667 0C614.101333 761.429333 938.410667 426.666667 938.410667 426.666667s11.349333-93.44-113.408-92.202667v-318.336s-31.914667-57.941333-99.754667-56.832c0 0-57.173333-1.109333-96 59.392V331.946667H390.442667v-303.146667s-30.293333-80.853333-108.672-69.461333c0 0-68.224 11.349333-87.125334 61.866666V331.946667s-120.874667 7.594667-108.373333 98.56z m650.368 339.2l142.762667-141.482667s22.741333-11.392 29.013333 20.224c6.314667 31.573333 6.4 135.125333 6.4 135.125333s-2.56 22.784-24.021333 16.426667l-142.762667 1.109333c0 0.042667-22.741333-4.864-11.392-31.402666z"  horiz-adv-x="1024" />
      
      <glyph glyph-name="a-xinfengxinxixiaoxi" unicode="&#58929;" d="M1024 656.128v-13.312L569.92 403.328a128.128 128.128 0 0 0-118.144-0.64L0.512 634.304v21.76a64 64 0 0 0 64 64H960a64 64 0 0 0 64-64zM1024 570.432v-458.048a64 64 0 0 0-64-64H64.448a64 64 0 0 0-64 64V562.432l451.84-231.872c37.12-19.072 81.152-18.752 118.016 0.704L1024 570.432z"  horiz-adv-x="1024" />
      
      <glyph glyph-name="yezhudianhua" unicode="&#58930;" d="M388.864 412.0576a343.3472 343.3472 0 0 1 149.0432-152.576l49.664 51.0976a21.3504 21.3504 0 0 0 23.04 5.7344 249.0368 249.0368 0 0 1 80.6912-12.9536c12.2368 0 22.272-10.752 22.272-23.04V199.68c0-12.9536-10.0352-23.04-22.272-23.04-212.4288 0-384.512 176.384-384.512 394.5472 0 12.9536 10.0864 23.04 22.3232 23.04h79.2064c12.288 0 22.3232-10.0864 22.3232-23.04 0-28.7744 4.3008-56.832 12.9536-83.5072a24.4224 24.4224 0 0 0-5.7344-23.7568l-48.9984-51.8656zM512 729.6A345.7024 345.7024 0 0 1 166.4 384 345.7024 345.7024 0 0 1 512 38.4 345.7024 345.7024 0 0 1 857.6 384 345.7024 345.7024 0 0 1 512 729.6m0 57.6A403.456 403.456 0 0 0 915.2 384 403.456 403.456 0 0 0 512-19.2 403.456 403.456 0 0 0 108.8 384 403.456 403.456 0 0 0 512 787.2z"  horiz-adv-x="1024" />
      
      <glyph glyph-name="chuzifangshi" unicode="&#58931;" d="M828.8256 707.1744H195.2256a115.2 115.2 0 0 1-115.2-115.2v-518.4a115.2 115.2 0 0 1 115.2-115.2h633.5488a115.2 115.2 0 0 1 115.2 115.2V591.9744a115.2 115.2 0 0 1-115.2 115.2z m57.6-633.5488c0-31.8464-25.8048-57.6-57.6-57.6H195.2256a57.6 57.6 0 0 0-57.6512 57.6V476.7744h748.8512v-403.2512z m0 460.8H137.6256V591.9744c0 31.744 25.7536 57.6 57.5488 57.6h633.6512c31.744 0 57.6-25.8048 57.6-57.6v-57.6zM396.8 188.7744a28.7744 28.7744 0 1 1 0-57.5488h86.4256v-57.6512a28.7744 28.7744 0 1 1 57.5488 0v57.6h86.4256a28.7744 28.7744 0 1 1 0 57.6512h-86.4256v57.5488h86.4256a28.7744 28.7744 0 1 1 0 57.6512h-71.68l-0.9728 0.9728 92.16 92.16a30.1056 30.1056 0 0 1-42.5472 42.5472l-92.16-92.16-92.16 92.16a30.1056 30.1056 0 0 1-42.5472-42.5472l92.16-92.16-1.024-1.024H396.8a28.8256 28.8256 0 0 1 0-57.5488h86.3744v-57.6512H396.8z"  horiz-adv-x="1024" />
      
      <glyph glyph-name="yanzhengma" unicode="&#58932;" d="M511.2832 271.4112a27.9552 27.9552 0 0 1-27.9552-27.9552v-111.872a28.0064 28.0064 0 0 1 55.9104 0v111.872a27.9552 27.9552 0 0 1-27.9552 27.9552z m223.744 111.4112v224.256a223.744 223.744 0 1 1-447.488 0v-224.256a278.016 278.016 0 0 1-55.9616-167.3216 279.7056 279.7056 0 1 1 559.4112 0 278.016 278.016 0 0 1-55.9616 167.3216z m-391.5776 224.256a167.8336 167.8336 0 0 0 335.6672 0v-168.192a278.1184 278.1184 0 0 1-335.6672 0V607.0784z m167.8336-615.3728a223.744 223.744 0 0 0 0 447.5392c119.3472 0 223.744-104.3968 223.744-223.744a223.744 223.744 0 0 0-223.744-223.744z"  horiz-adv-x="1024" />
      
      <glyph glyph-name="changjianwenti" unicode="&#58933;" d="M450.133333 343.893333v-61.866666h246.613334v61.866666h-246.613334z m-123.306666 0v-61.866666h61.866666v61.866666H326.826667z m123.306666 123.733334v-61.866667h246.613334v61.866667h-246.613334z m-123.306666 0v-61.866667h61.866666v61.866667H326.826667z m123.306666 123.306666V529.066667h246.613334V590.933333h-246.613334z m-123.306666 0V529.066667h61.866666V590.933333H326.826667zM234.666667 714.24h554.666666v-555.093333h-197.546666l-9.813334-8.533334-70.4-70.4-70.4 70.4-9.813333 8.533334H234.666667V714.24zM172.8 775.68v-677.973333h232.96l83.626667-83.626667 22.186666-21.333333 22.186667 21.333333 83.626667 83.626667h232.96V775.68H172.8z"  horiz-adv-x="1024" />
      
      <glyph glyph-name="shouye-moren" unicode="&#58934;" d="M815.146667 363.733333a33.706667 33.706667 0 0 0 33.706666-33.706666v-291.882667a78.677333 78.677333 0 0 0-78.592-78.592h-134.741333a78.677333 78.677333 0 0 0-78.592 78.592v145.92h-89.856v-145.92a78.677333 78.677333 0 0 0-78.592-78.592H253.738667a78.677333 78.677333 0 0 0-78.592 78.592v291.925333a33.706667 33.706667 0 1 0 67.413333 0v-291.925333c0-6.186667 4.992-11.221333 11.178667-11.221333h134.741333a11.221333 11.221333 0 0 1 11.221333 11.221333v179.626667a33.706667 33.706667 0 0 0 33.706667 33.706666h157.184a33.706667 33.706667 0 0 0 33.706667-33.706666v-179.626667c0-6.186667 5.034667-11.221333 11.221333-11.221333h134.741333a11.221333 11.221333 0 0 1 11.221334 11.221333v291.925333a33.706667 33.706667 0 0 0 33.706666 33.706667zM512 768c20.394667 0 39.637333-7.68 54.186667-21.632l362.112-347.050667a33.706667 33.706667 0 1 0-46.634667-48.64l-362.069333 347.050667a11.349333 11.349333 0 0 1-15.189334 0L142.336 350.72a33.578667 33.578667 0 0 0-47.616 0.981333 33.706667 33.706667 0 0 0 0.981333 47.616l362.112 347.050667A77.909333 77.909333 0 0 0 512 768z m303.445333 0c37.12 0 67.370667-30.208 67.370667-67.370667v-123.52a33.706667 33.706667 0 0 0-67.370667 0V700.629333h-123.52a33.706667 33.706667 0 0 0 0 67.370667h123.52z"  horiz-adv-x="1024" />
      
      <glyph glyph-name="shurucuowu" unicode="&#58935;" d="M512 832a448 448 0 1 1 0-896A448 448 0 0 1 512 832z m165.376-618.24l-65.92 0.32L512 332.608l-99.328-118.4-66.048-0.32a7.936 7.936 0 0 0-8 8c0 1.92 0.64 3.712 1.92 5.184L470.528 382.08 340.48 536.96a8 8 0 0 0 6.08 13.184l66.112-0.256L512 431.424l99.328 118.4 65.92 0.256c4.48 0 8.064-3.456 8.064-8a8.32 8.32 0 0 0-1.92-5.12l-129.92-154.944 130.048-155.008a8 8 0 0 0-6.08-13.184z"  horiz-adv-x="1024" />
      
      <glyph glyph-name="xiangmudizhi" unicode="&#58936;" d="M380.5184 357.888H484.864v-52.224H380.416v52.224zM223.8976 671.0784h104.448v-52.224h-104.448v52.224z m156.6208 0H484.864v-52.224H380.416v52.224z m0-156.5696H484.864v-52.224H380.416V514.56z m-156.6208 0h104.448v-52.224h-104.448V514.56z m574.208-156.6208h104.3968v-52.224h-104.448v52.224z m0-156.5696h104.3968v-52.224h-104.448v52.224z m156.5696 365.3632h-208.7936a52.224 52.224 0 0 1-52.224-52.224v-521.9328c0-28.8256 23.4496-52.224 52.224-52.224h208.7936a52.224 52.224 0 0 1 52.224 52.224V514.5088a52.224 52.224 0 0 1-52.224 52.224z m0-574.1568h-208.7936V514.5088h208.7936v-521.984zM223.8976 357.888h104.448v-52.224h-104.448v52.224z m313.1904 469.8112H171.7248a52.224 52.224 0 0 1-52.224-52.224v-782.9504c0-28.8256 23.3984-52.224 52.224-52.224h365.3632a52.224 52.224 0 0 1 52.224 52.224V775.4752a52.224 52.224 0 0 1-52.224 52.224z m0-835.1744H171.7248V775.4752h365.3632v-782.9504z"  horiz-adv-x="1024" />
      
      <glyph glyph-name="yezhuxingming" unicode="&#58937;" d="M809.5232 73.7792a31.488 31.488 0 1 0-62.976 0l-0.256 2.9184c0 1.28 0.2048 2.4576 0.3584 3.6864-19.6608 138.24-138.24 239.8208-282.5216 241.408-1.1264 0-2.2528-0.1536-3.4304-0.1536l-3.3792 0.1536c-142.6432-1.536-260.0448-100.864-281.6512-236.7488a31.744 31.744 0 0 0 1.2288-8.2944l0.256-2.9696a32 32 0 1 0-63.9488 0v0.256h-0.6144c0.0512 0.9216 0.256 1.8432 0.3584 2.7648 0 2.6112 0.4096 5.12 1.024 7.5776 16.384 127.488 101.7856 230.5024 218.0096 274.8416C264.2944 402.5856 220.16 479.232 220.16 566.784 220.16 702.1056 325.376 811.8784 460.8 811.8784c135.3728 0 240.5376-109.7728 240.5376-245.1456 0-87.5008-44.032-164.096-111.7184-207.4624 115.456-44.032 200.448-145.8688 217.7536-272.0256a31.4368 31.4368 0 0 0 1.9456-10.5472l0.256-2.9184z m-163.5328 492.9024a185.344 185.344 0 1 1-370.6368 0 185.344 185.344 0 0 1 370.688 0z"  horiz-adv-x="1024" />
      
      <glyph glyph-name="shuruzhengque" unicode="&#58939;" d="M512 832a448 448 0 1 1 0-896A448 448 0 0 1 512 832z m193.472-301.696l-210.56-292.032a31.808 31.808 0 0 0-51.712 0l-124.672 172.8a8 8 0 0 0 6.464 12.736h46.912c10.24 0 19.84-4.928 25.92-13.312L468.992 311.68l157.184 218.048a32 32 0 0 0 25.92 13.248h46.912c6.464 0 10.24-7.36 6.464-12.672z"  horiz-adv-x="1024" />
      
      <glyph glyph-name="dianxinganli" unicode="&#58940;" d="M198.485333 384A164.394667 164.394667 0 0 0 128 519.04V768h248.96A164.266667 164.266667 0 0 0 512 697.514667 164.394667 164.394667 0 0 0 647.04 768H896v-248.96a164.565333 164.565333 0 0 0-164.565333-164.565333h-189.909334v-189.866667A164.565333 164.565333 0 0 0 376.96 0H128v248.96A164.266667 164.266667 0 0 0 198.485333 384z m98.304-29.525333a109.696 109.696 0 0 1-109.696-109.696v-185.685334h185.685334a109.696 109.696 0 0 1 109.696 109.696v185.685334H296.789333z m0 59.050666h185.685334V599.210667a109.696 109.696 0 0 1-109.696 109.696H187.093333v-185.685334a109.696 109.696 0 0 1 109.696-109.696z m244.736 185.685334v-185.685334h185.685334a109.696 109.696 0 0 1 109.696 109.696V708.906667h-185.685334a109.696 109.696 0 0 1-109.696-109.696z m86.485334-303.786667h240.554666c15.146667 0 27.434667-12.288 27.434667-27.434667v-4.266666a27.434667 27.434667 0 0 0-27.434667-27.392H628.053333a27.434667 27.434667 0 0 0-27.434666 27.434666v4.224c0 15.146667 12.288 27.434667 27.434666 27.434667z m32-96.426667v-21.76h208.554666c15.146667 0 27.434667-12.288 27.434667-27.434666v-4.224a27.434667 27.434667 0 0 0-27.434667-27.434667h-207.061333v-22.272l-60.928 52.053333 59.434667 51.029334z m-32-139.946666h240.554666c15.146667 0 27.434667-12.245333 27.434667-27.392v-4.266667a27.434667 27.434667 0 0 0-27.434667-27.392H628.053333a27.434667 27.434667 0 0 0-27.434666 27.434667v4.224c0 15.146667 12.288 27.434667 27.434666 27.434666z"  horiz-adv-x="1024" />
      
      <glyph glyph-name="yonghuming-yanzhengma" unicode="&#58942;" d="M918.0672 628.3264a448.6656 448.6656 0 0 0-103.424 19.2512c-10.1376 3.0208-20.224 6.3488-30.3616 9.984-21.4016 6.2976-50.4832 18.7904-83.456 36.608l-1.0752 0.512c-7.7824 4.2496-15.7184 8.704-23.808 13.4656a730.9312 730.9312 0 0 0-32.4608 19.8144l-1.2288 0.8192a736.6144 736.6144 0 0 0-23.0912 15.5136c-5.0176 3.4304-9.984 7.0656-14.9504 10.6496-3.7376 2.7648-7.5264 5.3248-11.264 8.192a800.256 800.256 0 0 0-79.872 68.1984 800.256 800.256 0 0 0-79.872-68.1984c-3.6864-2.8672-7.4752-5.4272-11.2128-8.192-4.9664-3.584-9.984-7.2192-14.9504-10.6496-7.68-5.376-15.36-10.496-23.04-15.5136l-1.28-0.8192c-10.752-6.912-21.5552-13.568-32.4608-19.8144-8.0896-4.7616-16.0256-9.216-23.808-13.4144l-1.024-0.5632c-33.024-17.8176-62.1568-30.3104-83.5072-36.608-10.1376-3.584-20.224-6.9632-30.3104-9.984a448.6656 448.6656 0 0 0-103.5264-19.2512H108.032c1.024-16.1792 2.0992-37.632 3.3792-60.928l0.6656 0.0512c6.144-86.7328 23.5008-210.0736 49.664-282.5728 1.2288-3.1744 2.2016-6.4512 3.3792-9.5744 0.5632-1.536 1.2288-2.8672 1.7408-4.3008 62.7712-162.048 171.776-279.9616 302.7968-323.1744v-0.4608c17.3056-5.6832 31.8976-9.216 43.4176-11.4688 11.52 2.2528 26.112 5.7856 43.4688 11.4688v0.4608c130.9696 43.2128 240.0256 161.1264 302.7968 323.1744 0.512 1.4336 1.1776 2.816 1.7408 4.3008 1.1776 3.072 2.1504 6.4 3.328 9.5744 26.2144 72.4992 43.6224 195.84 49.664 282.624l0.7168-0.0512c1.2288 23.2448 2.3552 44.6976 3.3792 60.8768h-0.1024z m-47.3088-41.8816l-0.512-9.5232a40.5504 40.5504 0 0 1-1.024-6.656c-5.6832-80.6912-21.6064-200.3456-47.3088-271.3088a206.848 206.848 0 0 1-2.048-5.8368c-0.4096-1.2288-0.768-2.4576-1.4336-4.096a88.064 88.064 0 0 1-1.3824-3.328c-58.368-150.6816-158.72-259.1232-275.3024-297.5744a45.2608 45.2608 0 0 1-5.4784-2.2016c-7.936-2.5088-15.6672-4.608-23.1936-6.3488a311.9104 311.9104 0 0 0-23.04 6.2976 45.7216 45.7216 0 0 1-5.5808 2.2528c-116.6336 38.4-216.9856 146.944-275.2 297.2672a112.3328 112.3328 0 0 1-1.6896 4.1472l-1.28 3.584a222.0544 222.0544 0 0 1-1.8944 5.632c-25.8048 71.168-41.728 190.8224-47.4112 271.5648a40.0896 40.0896 0 0 1-1.024 6.656l-0.512 9.2672c0 1.536-0.1024 2.9696-0.2048 4.4544a462.848 462.848 0 0 1 69.9392 16.2304c10.1376 3.072 20.48 6.4 31.4368 10.3424 25.1904 7.5776 56.4224 21.1968 90.4704 39.5264l1.6384 0.8704c8.2432 4.4544 16.6912 9.216 24.832 13.9776a774.912 774.912 0 0 1 59.904 38.144c4.5568 3.072 9.0624 6.4 13.6192 9.6768l2.4576 1.792 4.0448 2.8672 7.5264 5.5296c17.92 13.312 35.328 27.4432 52.0192 42.0864a845.4144 845.4144 0 0 1 59.4432-47.616l4.3008-3.072 1.536-1.0752c4.8128-3.4816 9.5744-6.9632 13.9776-9.9328 8.0896-5.6832 16.2816-11.1616 23.7056-15.9744l2.048-1.3312c12.3904-7.9872 23.7056-14.848 34.0992-20.8384a806.0416 806.0416 0 0 1 26.5216-14.8992c34.2016-18.432 65.536-32.1536 90.8288-39.7312 11.008-3.9424 21.2992-7.3216 30.6176-10.0864 22.1184-7.1168 46.08-12.6464 70.7584-16.4864l-0.2048-4.2496zM711.2704 484.352l-234.3424-240.1792-119.9616 122.9824a20.8896 20.8896 0 0 1-30.1056 0 22.1696 22.1696 0 0 1 0-30.8736l135.0144-138.3424a20.9408 20.9408 0 0 1 30.1056 0l249.344 255.5904a22.1696 22.1696 0 0 1 0 30.8224 20.8896 20.8896 0 0 1-30.0544 0z"  horiz-adv-x="1024" />
      
      <glyph glyph-name="zichan-xuanzhong" unicode="&#58943;" d="M876.373333 552.106667l-268.501333 98.304a2.005333 2.005333 0 0 1-2.688-1.92v-667.989334c0-0.128 0.085333-0.213333 0.170667-0.213333h238.208c28.970667 0 52.437333 24.192 52.437333 53.973333V523.861333a29.994667 29.994667 0 0 1-19.626667 28.245334z m-123.690666-341.162667a8.064 8.064 0 0 0-8.021334-8.021333h-48.128a8.064 8.064 0 0 0-8.021333 8.021333v48.128c0 4.437333 3.584 8.021333 8.021333 8.021333h48.128c4.437333 0 8.021333-3.584 8.021334-8.021333v-48.128z m0 128.384a8.064 8.064 0 0 0-8.021334-8.021333h-48.128a8.064 8.064 0 0 0-8.021333 8.021333V387.413333c0 4.394667 3.584 8.021333 8.021333 8.021334h48.128c4.437333 0 8.021333-3.626667 8.021334-8.021334v-48.128z m-177.493334 459.989333a9.386667 9.386667 0 0 1-6.528 9.045334 52.138667 52.138667 0 0 1-15.36 2.304 29.738667 29.738667 0 0 1-9.301333-1.493334L148.778667 680.789333a29.952 29.952 0 0 1-20.778667-28.586666v-619.946667a52.053333 52.053333 0 0 1 52.053333-51.968h394.624c0.426667 0 0.597333 0.298667 0.597334 0.597333V799.317333h-0.085334zM338.517333 211.541333a8.618667 8.618667 0 0 0-8.618666-8.618666h-78.933334a8.618667 8.618667 0 0 0-8.618666 8.618666v46.848c0 4.821333 3.882667 8.618667 8.618666 8.618667h78.933334c4.778667 0 8.618667-3.925333 8.618666-8.618667v-46.848z m0 128.384a8.618667 8.618667 0 0 0-8.618666-8.618666h-78.933334a8.618667 8.618667 0 0 0-8.618666 8.618666v46.848c0 4.778667 3.882667 8.618667 8.618666 8.618667h78.933334c4.778667 0 8.618667-3.925333 8.618666-8.618667v-46.848z m0 128.341334a8.618667 8.618667 0 0 0-8.618666-8.618667h-78.933334a8.618667 8.618667 0 0 0-8.618666 8.618667V515.114667c0 4.821333 3.882667 8.618667 8.618666 8.618666h78.933334c4.778667 0 8.618667-3.882667 8.618666-8.618666v-46.848z m152.405334-256.725334a8.618667 8.618667 0 0 0-8.618667-8.618666h-78.933333a8.618667 8.618667 0 0 0-8.618667 8.618666v46.848c0 4.821333 3.925333 8.618667 8.618667 8.618667h78.933333c4.821333 0 8.618667-3.925333 8.618667-8.618667v-46.848z m0 128.384a8.618667 8.618667 0 0 0-8.618667-8.618666h-78.933333a8.618667 8.618667 0 0 0-8.618667 8.618666v46.848c0 4.778667 3.925333 8.618667 8.618667 8.618667h78.933333c4.821333 0 8.618667-3.925333 8.618667-8.618667v-46.848z m0 128.341334a8.618667 8.618667 0 0 0-8.618667-8.618667h-78.933333a8.618667 8.618667 0 0 0-8.618667 8.618667V515.114667c0 4.821333 3.925333 8.618667 8.618667 8.618666h78.933333c4.821333 0 8.618667-3.882667 8.618667-8.618666v-46.848z"  horiz-adv-x="1024" />
      
      <glyph glyph-name="kaifaliucheng" unicode="&#58944;" d="M903.594667 269.44h-95.829334v130.944a28.928 28.928 0 0 1-29.226666 29.184h-240.810667V495.061333h88.832a28.928 28.928 0 0 1 29.226667 29.226667V762.752a28.928 28.928 0 0 1-29.226667 29.226667H389.248a28.928 28.928 0 0 1-29.226667-29.226667v-238.506667c0-16.341333 12.885333-29.184 29.226667-29.184h91.178667v-65.493333H245.461333a28.928 28.928 0 0 1-29.226666-29.184v-130.944H120.405333a28.928 28.928 0 0 1-29.226666-29.226667v-238.464c0-16.341333 12.842667-29.226667 29.226666-29.226666H358.826667a28.928 28.928 0 0 1 29.226666 29.226666v238.506667a28.928 28.928 0 0 1-29.226666 29.184H274.688V371.2h473.429333v-101.717333h-84.138666a28.928 28.928 0 0 1-29.226667-29.226667v-238.464c0-16.341333 12.842667-29.226667 29.226667-29.226667h239.616a28.928 28.928 0 0 1 29.226666 29.226667v238.506667a28.928 28.928 0 0 1-29.226666 29.184zM418.474667 733.525333h180.053333v-180.053333h-180.053333v180.053333zM329.642667 30.976h-180.053334v180.053333h180.053334v-180.053333z m544.725333 0h-180.010667v180.053333h180.053334v-180.053333z"  horiz-adv-x="1024" />
      
      <glyph glyph-name="weixin" unicode="&#58945;" d="M331.410286 632.539429a50.980571 50.980571 0 0 1-14.262857 37.741714 50.980571 50.980571 0 0 1-37.741715 14.262857 69.046857 69.046857 0 0 1-43.373714-14.555429 45.275429 45.275429 0 0 1-18.870857-37.449142c0-14.848 6.290286-27.062857 18.870857-36.790858 12.507429-9.728 27.062857-14.628571 43.373714-14.628571a51.565714 51.565714 0 0 1 37.741715 14.043429 50.029714 50.029714 0 0 1 14.262857 37.376z m424.594285-289.645715a37.083429 37.083429 0 0 1-14.628571 28.525715A55.222857 55.222857 0 0 1 704.073143 384c-10.24 0-19.748571-4.315429-28.306286-12.873143a39.350857 39.350857 0 0 1-12.873143-28.306286c0-10.605714 4.388571-20.260571 12.873143-28.818285a39.350857 39.350857 0 0 1 28.306286-12.873143 55.222857 55.222857 0 0 1 37.449143 12.580571 37.595429 37.595429 0 0 1 14.555428 29.110857z m-134.875428 289.645715a51.565714 51.565714 0 0 1-13.970286 37.741714 50.029714 50.029714 0 0 1-37.449143 14.262857 69.046857 69.046857 0 0 1-43.446857-14.555429 45.275429 45.275429 0 0 1-18.797714-37.449142c0-14.848 6.217143-27.062857 18.797714-36.790858s27.062857-14.628571 43.446857-14.628571a50.614857 50.614857 0 0 1 37.449143 14.043429 50.614857 50.614857 0 0 1 13.970286 37.376z m362.861714-289.645715c0 10.605714-4.973714 20.187429-14.848 28.525715A55.515429 55.515429 0 0 1 931.986286 384c-10.24 0-19.748571-4.315429-28.306286-12.873143a39.350857 39.350857 0 0 1-12.8-28.306286c0-10.605714 4.242286-20.260571 12.8-28.818285a39.350857 39.350857 0 0 1 28.306286-12.873143 55.515429 55.515429 0 0 1 37.156571 12.580571 37.302857 37.302857 0 0 1 14.848 29.110857z m-151.990857 226.816a314.953143 314.953143 0 0 1-40.009143 2.267429c-64.365714 0-123.611429-14.628571-177.737143-43.958857a334.774857 334.774857 0 0 1-127.707428-119.222857 305.883429 305.883429 0 0 1-46.518857-164.205715c0-29.696 4.388571-58.660571 13.165714-86.893714a455.241143 455.241143 0 0 0-67.510857-0.804571 328.850286 328.850286 0 0 0-31.451429 3.657142 697.270857 697.270857 0 0 0-56.539428 10.020572 3115.885714 3115.885714 0 0 0-28.525715 5.997714l-144.603428-72.557714 41.179428 124.562286C55.296 305.883429 0 399.213714 0 508.562286c0 64.365714 18.578286 123.611429 55.734857 177.737143 37.156571 54.125714 87.405714 96.621714 150.820572 127.707428a466.066286 466.066286 0 0 0 207.725714 46.592c67.072 0 130.413714-12.580571 190.025143-37.741714a417.499429 417.499429 0 0 0 149.723428-104.301714c40.228571-44.397714 66.194286-93.988571 77.970286-148.845715zM1170.285714 249.124571c0-44.617143-13.019429-87.113143-39.131428-127.707428-26.112-40.594286-61.44-77.385143-106.057143-110.592l31.451428-103.424-113.664 62.317714c-57.197714-14.116571-98.742857-21.211429-124.562285-21.211428-64.365714 0-123.611429 13.458286-177.737143 40.374857-54.125714 26.843429-96.694857 63.341714-127.707429 109.421714a264.557714 264.557714 0 0 0-46.592 150.820571c0 54.491429 15.506286 104.813714 46.592 150.893715 31.012571 46.08 73.581714 82.578286 127.707429 109.421714s113.371429 40.228571 177.737143 40.228571c61.293714 0 119.003429-13.385143 173.129143-40.228571 54.125714-26.843429 97.426286-63.414857 129.974857-109.714286 32.548571-46.299429 48.859429-96.548571 48.859428-150.601143z"  horiz-adv-x="1170" />
      
      <glyph glyph-name="lianxiren" unicode="&#58946;" d="M851.2 787.2H332.8a115.2 115.2 0 0 1-115.2-115.2V614.4h-28.8256a28.8256 28.8256 0 0 1 0-57.6h28.8256v-144.0256h-28.8256a28.8256 28.8256 0 0 1 0-57.5488h28.8256v-144.0256h-28.8256a28.7744 28.7744 0 1 1 0-57.6h28.8256v-57.6a115.2 115.2 0 0 1 115.2-115.2h518.4a115.2 115.2 0 0 1 115.2 115.2V672a115.2 115.2 0 0 1-115.2 115.2z m57.6-691.2c0-31.7952-25.8048-57.6-57.6-57.6H332.8a57.6 57.6 0 0 0-57.6 57.6V153.6h28.8256a28.7744 28.7744 0 1 1 0 57.6h-28.8256v144.0256h28.8256a28.8256 28.8256 0 0 1 0 57.5488h-28.8256V556.8512h28.8256a28.8256 28.8256 0 0 1 0 57.6h-28.8256V672c0 31.7952 25.8048 57.6 57.6 57.6h518.4c31.7952 0 57.6-25.8048 57.6-57.6v-576zM592.0256 326.4A172.8 172.8 0 0 1 419.1744 153.6h57.6512a115.2 115.2 0 1 0 230.4 0h57.5488a172.8 172.8 0 0 1-172.7488 172.8z m0 57.6a115.2 115.2 0 1 1-0.1024 230.4512A115.2 115.2 0 0 1 592.0256 384z m0 172.3392a57.1392 57.1392 0 1 0 0-114.2784 57.1392 57.1392 0 0 0 0 114.2784z"  horiz-adv-x="1024" />
      
      <glyph glyph-name="xiangmumingcheng" unicode="&#58947;" d="M481.536-7.7824c-108.3904 0-159.232-0.1024-267.6736 0-93.952 0.1536-131.7888 38.3488-131.84 132.608 0 175.4624-0.1024 350.9248 0 526.4384 0.0512 82.9952 40.0384 124.0064 123.392 124.2112 222.3616 0.512 387.1744 0.512 609.4848-0.1024 85.6064-0.2048 126.9248-42.5984 126.976-127.488 0.1024-176.4352 0.1024-352.8192 0-529.2544-0.0512-86.272-39.7312-126.0544-126.9248-126.3616-111.104-0.3584-222.208-0.0512-333.4144-0.0512z m337.7664 46.336c55.808 0.1536 75.776 20.48 75.8272 76.7488V652.5952c0 56.2688-19.968 76.8-75.7248 76.8-224.0512 0.1024-390.5536 0.1024-614.656 0-55.808-0.1024-75.776-20.48-75.8272-76.7488v-537.2928c0-56.32 19.968-76.7488 75.7248-76.8 111.104-0.1536 164.6592 0 275.8144 0 112.896 0 225.8944-0.1536 338.8416 0z m-233.3696 483.2256c0.512 23.6032-2.1504 45.7728 7.936 66.6624 24.5248 50.8928 70.144 51.2 117.5552 51.3024 44.0832 0.1024 84.8384-6.5024 102.8608-51.8656 17.8176-44.6976 18.7904-92.928-0.512-137.0112-23.3984-53.504-74.1376-52.224-122.9824-51.5584-42.24 0.6656-77.824 12.288-97.3824 53.6576-10.752 22.6816-6.2464 46.7968-7.4752 68.8128z m46.6944-0.9216c-0.3584-68.9152 5.5296-74.6496 74.9568-74.6496 6.4 0 12.8-0.1024 19.2 0.0512 29.5424 0.9216 48.128 13.2096 50.5344 39.68 4.608 50.8928 5.5808 89.856-24.064 102.656a52.2752 52.2752 0 0 1-18.688 3.4304 1002.496 1002.496 0 0 1-60.3136 0c-26.2656-1.024-39.7312-14.6432-41.5232-41.0624-0.7168-9.984-0.1024-20.0704-0.1024-30.1056z m-287.3344-375.0912c-52.3264 0-47.0528-0.0512-99.4304 0.0512-8.192 0-16.64-0.2048-24.6784 1.1776-11.776 1.9968-21.1456 8.6016-21.504 21.4016-0.3584 14.1824 9.216 23.04 22.4256 23.0912 122.112 0.512 186.5728 0.512 308.6848 0 11.9808 0 20.7872-7.8848 21.0432-21.1456 0.3584-14.6944-9.0624-22.3232-22.1184-23.296-20.992-1.536-42.1376-1.1776-63.2832-1.2288-40.2944-0.1536-80.7424-0.0512-121.1392-0.0512z m-109.568 98.4576c-17.3056 0-36.2496 1.0752-35.6352 23.808 0.512 20.6848 19.2512 22.0672 35.072 22.1184 112.7424 0.3072 167.936 0.3072 280.6272 0.1536 16.9984-0.1024 35.8912-1.536 35.328-24.576-0.5632-21.7088-18.8416-21.504-34.816-21.504-56.832-0.1024-113.664 0-170.496 0h-110.08z"  horiz-adv-x="1024" />
      
      <glyph glyph-name="yonghuming-shoujihao" unicode="&#58949;" d="M643.559619 785.066667h-309.638095c-42.76419 0-77.433905-34.620952-77.433905-77.433905V10.971429c0-42.76419 34.620952-77.385143 77.433905-77.385143h309.638095c42.76419 0 77.385143 34.620952 77.385143 77.385143V707.632762c0 42.76419-34.620952 77.433905-77.385143 77.433905z m38.716952-774.144a38.716952 38.716952 0 0 0-38.716952-38.716953h-309.638095a38.716952 38.716952 0 0 0-38.716953 38.716953v77.433904h387.072v-77.433904z m0 116.150857H295.204571V610.889143h387.072v-483.815619z m0 522.532571H295.204571v58.026667c0 21.406476 17.310476 38.716952 38.716953 38.716952h309.638095c21.357714 0 38.716952-17.310476 38.716952-38.716952v-58.026667z m-193.584761-638.683428a19.358476 19.358476 0 1 1 0 38.716952 19.358476 19.358476 0 0 1 0-38.716952z"  horiz-adv-x="1024" />
      
      <glyph glyph-name="dianzhanleixing" unicode="&#58950;" d="M425.6256 758.3744H137.5232v-287.9488c0-31.8464 25.8048-57.6512 57.6512-57.6512h230.4c31.744 0 57.5488 25.8048 57.5488 57.6512v230.4c0 31.744-25.7536 57.5488-57.5488 57.5488z m0-287.9488h-230.4v230.4h230.4v-230.4z m0-115.2h-230.4c-31.8464 0-57.6512-25.8048-57.6512-57.6512v-287.9488h288.0512c31.744 0 57.5488 25.7536 57.5488 57.6v230.4c0 31.744-25.7536 57.5488-57.5488 57.5488z m0-288.0512h-230.4v230.4h230.4v-230.4z m172.7488 691.2c-31.744 0-57.5488-25.7536-57.5488-57.5488v-230.4c0-31.8464 25.7536-57.6512 57.5488-57.6512h230.4c31.8464 0 57.6 25.8048 57.6 57.6512V758.3232h-288z m230.4-287.9488h-230.4v230.4h230.4v-230.4z m0-115.2h-230.4c-31.744 0-57.5488-25.8048-57.5488-57.6512v-230.4c0-31.744 25.7536-57.6 57.5488-57.6h288.0512v288c0 31.8464-25.8048 57.6512-57.6 57.6512z m0-288.0512h-230.4v230.4h230.4v-230.4z"  horiz-adv-x="1024" />
      
      <glyph glyph-name="wode-xuanzhong" unicode="&#58951;" d="M737.152 356.010667A159.317333 159.317333 0 0 0 896 197.162667v-88.277334a159.317333 159.317333 0 0 0-158.848-158.848H286.848A159.317333 159.317333 0 0 0 128 108.885333v88.32a159.317333 159.317333 0 0 0 158.848 158.805334h450.304zM512 810.666667a210.944 210.944 0 0 0 210.944-210.944l-0.170667-9.173334a210.944 210.944 0 0 0-421.717333 9.173334l0.170667 9.130666A210.944 210.944 0 0 0 512 810.666667z"  horiz-adv-x="1024" />
      
      <glyph glyph-name="lianxirendianhua" unicode="&#58952;" d="M738.816 182.3744H285.184a3.584 3.584 0 0 0-3.584 3.584v50.432a3.584 3.584 0 0 0 3.584 3.584h453.632a3.584 3.584 0 0 0 3.584-3.584v-50.3808a3.584 3.584 0 0 0-3.584-3.584z m0-115.2H285.184a3.584 3.584 0 0 0-3.584 3.584v50.432a3.584 3.584 0 0 0 3.584 3.584h453.632a3.584 3.584 0 0 0 3.584-3.584v-50.3808a3.584 3.584 0 0 0-3.584-3.584zM828.8256 758.3744v-748.7488a28.7744 28.7744 0 0 0-28.8256-28.8256H224a28.7744 28.7744 0 0 0-28.8256 28.8256V758.3744c0 15.872 12.9024 28.7744 28.8256 28.7744h576c15.9232 0 28.8256-12.8512 28.8256-28.8256zM195.2256 844.8c-31.7952 0-57.6512-25.8048-57.6512-57.6v-806.4c0-31.744 25.856-57.6 57.6512-57.6h633.5488c31.7952 0 57.6 25.8048 57.6 57.6V787.2c0 31.744-25.8048 57.6-57.6 57.6H195.2256zM728.1664 418.6624a194.56 194.56 0 0 0-105.6256-56.2688l-28.5696-5.12c-17.408-3.1744-35.328-2.7136-52.6336 1.1776l-28.9792 7.168a324.3008 324.3008 0 0 0-152.832 86.8864l-20.48 27.3408-7.2192 9.5232a133.9904 133.9904 0 0 0-22.6816 47.5648L302.08 564.992a194.5088 194.5088 0 0 0 8.0896 119.4496 29.0304 29.0304 0 0 0 19.6096 17.2544l30.8736 8.0384a15.872 15.872 0 0 0 16.9984-6.4l47.1552-68.9664a37.2736 37.2736 0 0 0-4.4032-47.5136l-17.3568-17.408a52.1216 52.1216 0 0 1 0-73.8304l17.8176-17.8176a160.1024 160.1024 0 0 1 55.7056-36.096l41.216-15.7696a52.0704 52.0704 0 0 1 67.2256 30.1568l8.8576 23.1424a37.632 37.632 0 0 0 41.5744 23.5008l82.176-14.7968a15.6672 15.6672 0 0 0 12.8-12.8512l5.376-31.4368a28.672 28.672 0 0 0-7.68-24.9856z"  horiz-adv-x="1024" />
      
      <glyph glyph-name="bitianxiang" unicode="&#58953;" d="M774.144-126.976l175.104 138.24-276.48 306.432 400.896 105.984-71.424 211.968-380.16-156.672L649.728 896H423.936l27.648-417.024-380.16 156.672L0 423.68l400.896-105.984-276.48-306.432 175.104-138.24 237.312 347.904z"  horiz-adv-x="1152" />
      
    </font>
</defs>
</svg>
